<svg width="315" height="64" viewBox="0 0 315 64" fill="none" xmlns="http://www.w3.org/2000/svg">
<path d="M26.1406 46.2656C25.0938 46.2656 24.2266 46.0547 23.5391 45.6328C22.8672 45.2109 22.3359 44.6484 21.9453 43.9453C21.5391 43.2578 21.2578 42.4609 21.1016 41.5547C20.9453 40.6328 20.8672 39.6797 20.8672 38.6953V37.9922C20.8672 37.0234 20.9453 36.0859 21.1016 35.1797C21.2734 34.2734 21.5625 33.4688 21.9688 32.7656C22.3594 32.0625 22.8906 31.5 23.5625 31.0781C24.2344 30.6562 25.0859 30.4453 26.1172 30.4453C26.8203 30.4453 27.4688 30.5703 28.0625 30.8203C28.6562 31.0547 29.1641 31.375 29.5859 31.7812C30.0078 32.1875 30.3281 32.6719 30.5469 33.2344C30.7656 33.7969 30.8594 34.3906 30.8281 35.0156H36.9688C37 33.5156 36.75 32.1641 36.2188 30.9609C35.6875 29.7422 34.9453 28.7031 33.9922 27.8438C33.0234 27 31.875 26.3438 30.5469 25.875C29.2188 25.4062 27.7734 25.1719 26.2109 25.1719C24.2578 25.1719 22.5391 25.5078 21.0547 26.1797C19.5859 26.8516 18.3516 27.7656 17.3516 28.9219C16.3516 30.0781 15.6016 31.4375 15.1016 33C14.6016 34.5469 14.3516 36.2109 14.3516 37.9922V38.6953C14.3516 40.4766 14.6016 42.1484 15.1016 43.7109C15.6172 45.2578 16.375 46.6094 17.375 47.7656C18.3594 48.9219 19.5938 49.8359 21.0781 50.5078C22.5625 51.1641 24.2891 51.4922 26.2578 51.4922C27.7109 51.4922 29.0859 51.2656 30.3828 50.8125C31.6953 50.3438 32.8438 49.7031 33.8281 48.8906C34.8125 48.0781 35.5859 47.1094 36.1484 45.9844C36.7266 44.8594 37 43.6406 36.9688 42.3281H30.8281C30.8594 42.9219 30.75 43.4609 30.5 43.9453C30.2656 44.4297 29.9297 44.8438 29.4922 45.1875C29.0547 45.5312 28.5469 45.7969 27.9688 45.9844C27.3906 46.1719 26.7812 46.2656 26.1406 46.2656ZM59.5859 51H66.1953V50.6016C65.8672 49.9609 65.6172 49.1953 65.4453 48.3047C65.2734 47.4141 65.1875 46.2891 65.1875 44.9297V34.0547C65.1875 32.5859 64.9141 31.2969 64.3672 30.1875C63.8203 29.0625 63.0625 28.1328 62.0938 27.3984C61.125 26.6641 59.9766 26.1094 58.6484 25.7344C57.3359 25.3594 55.9141 25.1719 54.3828 25.1719C52.6797 25.1719 51.1641 25.3906 49.8359 25.8281C48.5234 26.25 47.4141 26.8281 46.5078 27.5625C45.5859 28.2969 44.8828 29.1484 44.3984 30.1172C43.9297 31.0859 43.6953 32.1094 43.6953 33.1875H50.2109C50.2109 32.7344 50.2734 32.3203 50.3984 31.9453C50.5391 31.5703 50.75 31.25 51.0312 30.9844C51.3438 30.6875 51.75 30.4609 52.25 30.3047C52.75 30.1328 53.3438 30.0469 54.0312 30.0469C54.8125 30.0469 55.4922 30.1484 56.0703 30.3516C56.6641 30.5391 57.1562 30.8125 57.5469 31.1719C57.9219 31.5156 58.2031 31.9297 58.3906 32.4141C58.5781 32.8828 58.6719 33.4141 58.6719 34.0078V35.5078H55.0391C53.1641 35.5078 51.5 35.6797 50.0469 36.0234C48.6094 36.3516 47.3984 36.8359 46.4141 37.4766C45.3203 38.1797 44.5 39.0781 43.9531 40.1719C43.4062 41.25 43.1328 42.4922 43.1328 43.8984C43.1328 44.9922 43.3516 46.0078 43.7891 46.9453C44.2266 47.8672 44.8359 48.6641 45.6172 49.3359C46.3984 50.0078 47.3281 50.5312 48.4062 50.9062C49.5 51.2812 50.6953 51.4688 51.9922 51.4688C52.7891 51.4688 53.5312 51.3906 54.2188 51.2344C54.9062 51.0938 55.5391 50.8906 56.1172 50.625C56.6797 50.375 57.1953 50.0781 57.6641 49.7344C58.1328 49.3906 58.5469 49.0234 58.9062 48.6328C58.9844 49.0859 59.0781 49.5156 59.1875 49.9219C59.2969 50.3281 59.4297 50.6875 59.5859 51ZM53.375 46.4297C52.7656 46.4297 52.2266 46.3594 51.7578 46.2188C51.3047 46.0625 50.9219 45.8594 50.6094 45.6094C50.2969 45.3438 50.0547 45.0234 49.8828 44.6484C49.7266 44.2578 49.6484 43.8359 49.6484 43.3828C49.6484 42.8047 49.7578 42.2734 49.9766 41.7891C50.1953 41.2891 50.5312 40.8594 50.9844 40.5C51.4375 40.1562 52.0234 39.8906 52.7422 39.7031C53.4609 39.5 54.3281 39.3984 55.3438 39.3984H58.6719V43.7578C58.4844 44.0859 58.2266 44.4141 57.8984 44.7422C57.5703 45.0547 57.1797 45.3359 56.7266 45.5859C56.2734 45.8359 55.7656 46.0391 55.2031 46.1953C54.6406 46.3516 54.0312 46.4297 53.375 46.4297ZM73.9297 15V20.3203H81.5234V45.7031H73.9297V51H95.375V45.7031H88.1094V15H73.9297ZM124.227 38.5781V33.3047H104.703V38.5781H124.227ZM141.453 46.2656C140.406 46.2656 139.539 46.0547 138.852 45.6328C138.18 45.2109 137.648 44.6484 137.258 43.9453C136.852 43.2578 136.57 42.4609 136.414 41.5547C136.258 40.6328 136.18 39.6797 136.18 38.6953V37.9922C136.18 37.0234 136.258 36.0859 136.414 35.1797C136.586 34.2734 136.875 33.4688 137.281 32.7656C137.672 32.0625 138.203 31.5 138.875 31.0781C139.547 30.6562 140.398 30.4453 141.43 30.4453C142.133 30.4453 142.781 30.5703 143.375 30.8203C143.969 31.0547 144.477 31.375 144.898 31.7812C145.32 32.1875 145.641 32.6719 145.859 33.2344C146.078 33.7969 146.172 34.3906 146.141 35.0156H152.281C152.312 33.5156 152.062 32.1641 151.531 30.9609C151 29.7422 150.258 28.7031 149.305 27.8438C148.336 27 147.188 26.3438 145.859 25.875C144.531 25.4062 143.086 25.1719 141.523 25.1719C139.57 25.1719 137.852 25.5078 136.367 26.1797C134.898 26.8516 133.664 27.7656 132.664 28.9219C131.664 30.0781 130.914 31.4375 130.414 33C129.914 34.5469 129.664 36.2109 129.664 37.9922V38.6953C129.664 40.4766 129.914 42.1484 130.414 43.7109C130.93 45.2578 131.688 46.6094 132.688 47.7656C133.672 48.9219 134.906 49.8359 136.391 50.5078C137.875 51.1641 139.602 51.4922 141.57 51.4922C143.023 51.4922 144.398 51.2656 145.695 50.8125C147.008 50.3438 148.156 49.7031 149.141 48.8906C150.125 48.0781 150.898 47.1094 151.461 45.9844C152.039 44.8594 152.312 43.6406 152.281 42.3281H146.141C146.172 42.9219 146.062 43.4609 145.812 43.9453C145.578 44.4297 145.242 44.8438 144.805 45.1875C144.367 45.5312 143.859 45.7969 143.281 45.9844C142.703 46.1719 142.094 46.2656 141.453 46.2656ZM175.602 51H181.508V25.6406H174.969V43.4297C174.766 43.8359 174.523 44.2031 174.242 44.5312C173.961 44.8594 173.641 45.1406 173.281 45.375C172.859 45.6406 172.367 45.8438 171.805 45.9844C171.258 46.125 170.641 46.1953 169.953 46.1953C169.188 46.1953 168.539 46.1016 168.008 45.9141C167.477 45.7266 167.047 45.4141 166.719 44.9766C166.391 44.5547 166.148 43.9922 165.992 43.2891C165.852 42.5859 165.781 41.7188 165.781 40.6875V25.6406H159.266V40.6406C159.266 42.5625 159.477 44.2109 159.898 45.5859C160.336 46.9453 160.945 48.0625 161.727 48.9375C162.508 49.8281 163.445 50.4766 164.539 50.8828C165.633 51.2891 166.836 51.4922 168.148 51.4922C169.586 51.4922 170.906 51.1328 172.109 50.4141C173.328 49.6953 174.367 48.7031 175.227 47.4375L175.602 51ZM199.836 19.4297H193.32V25.6406H187.531V30.4453H193.32V41.9766C193.32 43.6484 193.539 45.0859 193.977 46.2891C194.414 47.4766 195.039 48.4531 195.852 49.2188C196.648 50 197.609 50.5781 198.734 50.9531C199.875 51.3125 201.141 51.4922 202.531 51.4922C203.25 51.4922 203.977 51.4531 204.711 51.375C205.461 51.3125 206.18 51.2188 206.867 51.0938C207.555 50.9688 208.203 50.8125 208.812 50.625C209.422 50.4219 209.953 50.1875 210.406 49.9219L209.773 45.4453C209.477 45.5234 209.117 45.6016 208.695 45.6797C208.289 45.7578 207.852 45.8281 207.383 45.8906C206.898 45.9688 206.391 46.0312 205.859 46.0781C205.344 46.125 204.836 46.1484 204.336 46.1484C203.648 46.1484 203.023 46.0703 202.461 45.9141C201.914 45.7578 201.445 45.4922 201.055 45.1172C200.664 44.7578 200.359 44.2734 200.141 43.6641C199.938 43.0391 199.836 42.2656 199.836 41.3438V30.4453H209.305V25.6406H199.836V19.4297ZM229.016 51.4688C231.469 51.4688 233.594 50.9922 235.391 50.0391C237.188 49.0859 238.5 48.0234 239.328 46.8516L236.07 43.3359C235.32 44.3047 234.344 45.0312 233.141 45.5156C231.938 46 230.695 46.2422 229.414 46.2422C228.508 46.2422 227.672 46.1016 226.906 45.8203C226.141 45.5391 225.461 45.1406 224.867 44.625C224.289 44.125 223.828 43.5703 223.484 42.9609C223.141 42.3359 222.859 41.5156 222.641 40.5V40.4297H239.844V37.6641C239.844 35.8047 239.586 34.1094 239.07 32.5781C238.555 31.0312 237.805 29.7109 236.82 28.6172C235.82 27.5234 234.602 26.6797 233.164 26.0859C231.742 25.4766 230.117 25.1719 228.289 25.1719C226.523 25.1719 224.891 25.4922 223.391 26.1328C221.891 26.7734 220.594 27.6719 219.5 28.8281C218.406 29.9844 217.555 31.3672 216.945 32.9766C216.336 34.5703 216.031 36.3359 216.031 38.2734V39.2109C216.031 40.9141 216.336 42.5156 216.945 44.0156C217.57 45.5 218.453 46.7891 219.594 47.8828C220.734 48.9922 222.102 49.8672 223.695 50.5078C225.289 51.1484 227.062 51.4688 229.016 51.4688ZM228.242 30.4453C229.07 30.4453 229.797 30.5781 230.422 30.8438C231.062 31.0938 231.602 31.4375 232.039 31.875C232.477 32.3281 232.82 32.8594 233.07 33.4688C233.32 34.0781 233.445 34.7266 233.445 35.4141V35.9297H222.758C222.914 35.1016 223.148 34.3516 223.461 33.6797C223.773 33.0078 224.164 32.4297 224.633 31.9453C225.086 31.4609 225.617 31.0938 226.227 30.8438C226.836 30.5781 227.508 30.4453 228.242 30.4453Z" fill="white"/>
<path d="M261.445 24.0654H265.812V28.4326C265.812 28.5469 265.927 28.6357 266.066 28.6357H269.113C269.253 28.6357 269.367 28.5469 269.367 28.4263V24.0654H273.734C273.849 24.0654 273.938 23.9512 273.938 23.8115V20.7646C273.938 20.625 273.849 20.5107 273.728 20.5107H269.367V16.1436C269.367 16.0293 269.253 15.9404 269.113 15.9404H266.066C265.927 15.9404 265.812 16.0293 265.812 16.1436V20.5107H261.445C261.331 20.5107 261.242 20.625 261.242 20.7646V23.8115C261.242 23.9512 261.331 24.0654 261.445 24.0654ZM282.266 24.0654H294.555C294.669 24.0654 294.758 23.9512 294.758 23.8115V20.7646C294.758 20.625 294.669 20.5107 294.548 20.5107H282.266C282.151 20.5107 282.062 20.625 282.062 20.7646V23.8115C282.062 23.9512 282.151 24.0654 282.266 24.0654ZM282.266 40.8867H294.555C294.669 40.8867 294.758 40.7725 294.758 40.6328V37.5859C294.758 37.4463 294.669 37.332 294.548 37.332H282.266C282.151 37.332 282.062 37.4463 282.062 37.5859V40.6328C282.062 40.7725 282.151 40.8867 282.266 40.8867ZM282.266 47.4883H294.555C294.669 47.4883 294.758 47.374 294.758 47.2344V44.1875C294.758 44.0479 294.669 43.9336 294.548 43.9336H282.266C282.151 43.9336 282.062 44.0479 282.062 44.1875V47.2344C282.062 47.374 282.151 47.4883 282.266 47.4883ZM269.843 42.3467L273.728 37.5923C274.001 37.2622 273.772 36.7607 273.354 36.7607H270.129C269.983 36.7607 269.843 36.8242 269.754 36.9448L267.596 39.5854L265.438 36.9448C265.393 36.8889 265.336 36.8435 265.271 36.8117C265.206 36.7799 265.135 36.7625 265.063 36.7607H261.833C261.414 36.7607 261.185 37.2622 261.458 37.5923L265.343 42.3467L261.363 47.2217C261.083 47.5518 261.312 48.0532 261.731 48.0532H264.956C265.102 48.0532 265.241 47.9897 265.33 47.8691L267.583 45.1079L269.837 47.8691C269.932 47.9834 270.072 48.0532 270.211 48.0532H273.436C273.855 48.0532 274.083 47.5518 273.811 47.2217L269.843 42.3467ZM301.359 6.60938H254.641C253.517 6.60938 252.609 7.51709 252.609 8.64062V55.3594C252.609 56.4829 253.517 57.3906 254.641 57.3906H301.359C302.483 57.3906 303.391 56.4829 303.391 55.3594V8.64062C303.391 7.51709 302.483 6.60938 301.359 6.60938ZM299.074 53.0742H256.926V10.9258H299.074V53.0742Z" fill="white"/>
</svg>
