<svg width="72" height="72" viewBox="0 0 72 72" fill="none" xmlns="http://www.w3.org/2000/svg">
<g filter="url(#filter0_d)">
<path d="M19.4453 23.0654H23.8125V27.4326C23.8125 27.5469 23.9268 27.6357 24.0664 27.6357H27.1133C27.2529 27.6357 27.3672 27.5469 27.3672 27.4263V23.0654H31.7344C31.8486 23.0654 31.9375 22.9512 31.9375 22.8115V19.7646C31.9375 19.625 31.8486 19.5107 31.728 19.5107H27.3672V15.1436C27.3672 15.0293 27.2529 14.9404 27.1133 14.9404H24.0664C23.9268 14.9404 23.8125 15.0293 23.8125 15.1436V19.5107H19.4453C19.3311 19.5107 19.2422 19.625 19.2422 19.7646V22.8115C19.2422 22.9512 19.3311 23.0654 19.4453 23.0654ZM40.2656 23.0654H52.5547C52.6689 23.0654 52.7578 22.9512 52.7578 22.8115V19.7646C52.7578 19.625 52.6689 19.5107 52.5483 19.5107H40.2656C40.1514 19.5107 40.0625 19.625 40.0625 19.7646V22.8115C40.0625 22.9512 40.1514 23.0654 40.2656 23.0654ZM40.2656 39.8867H52.5547C52.6689 39.8867 52.7578 39.7725 52.7578 39.6328V36.5859C52.7578 36.4463 52.6689 36.332 52.5483 36.332H40.2656C40.1514 36.332 40.0625 36.4463 40.0625 36.5859V39.6328C40.0625 39.7725 40.1514 39.8867 40.2656 39.8867ZM40.2656 46.4883H52.5547C52.6689 46.4883 52.7578 46.374 52.7578 46.2344V43.1875C52.7578 43.0479 52.6689 42.9336 52.5483 42.9336H40.2656C40.1514 42.9336 40.0625 43.0479 40.0625 43.1875V46.2344C40.0625 46.374 40.1514 46.4883 40.2656 46.4883ZM27.8433 41.3467L31.728 36.5923C32.001 36.2622 31.7725 35.7607 31.3535 35.7607H28.1289C27.9829 35.7607 27.8433 35.8242 27.7544 35.9448L25.5962 38.5854L23.438 35.9448C23.3926 35.8889 23.3356 35.8435 23.2709 35.8117C23.2063 35.7799 23.1355 35.7625 23.0635 35.7607H19.8325C19.4136 35.7607 19.1851 36.2622 19.458 36.5923L23.3428 41.3467L19.3628 46.2217C19.0835 46.5518 19.312 47.0532 19.731 47.0532H22.9556C23.1016 47.0532 23.2412 46.9897 23.3301 46.8691L25.5835 44.1079L27.8369 46.8691C27.9321 46.9834 28.0718 47.0532 28.2114 47.0532H31.436C31.855 47.0532 32.0835 46.5518 31.8105 46.2217L27.8433 41.3467ZM59.3594 5.60938H12.6406C11.5171 5.60938 10.6094 6.51709 10.6094 7.64062V54.3594C10.6094 55.4829 11.5171 56.3906 12.6406 56.3906H59.3594C60.4829 56.3906 61.3906 55.4829 61.3906 54.3594V7.64062C61.3906 6.51709 60.4829 5.60938 59.3594 5.60938ZM57.0742 52.0742H14.9258V9.92578H57.0742V52.0742Z" fill="white"/>
</g>
<defs>
<filter id="filter0_d" x="0.609375" y="0.609375" width="70.7812" height="70.7812" filterUnits="userSpaceOnUse" color-interpolation-filters="sRGB">
<feFlood flood-opacity="0" result="BackgroundImageFix"/>
<feColorMatrix in="SourceAlpha" type="matrix" values="0 0 0 0 0 0 0 0 0 0 0 0 0 0 0 0 0 0 127 0" result="hardAlpha"/>
<feOffset dy="5"/>
<feGaussianBlur stdDeviation="5"/>
<feComposite in2="hardAlpha" operator="out"/>
<feColorMatrix type="matrix" values="0 0 0 0 1 0 0 0 0 1 0 0 0 0 1 0 0 0 0.5 0"/>
<feBlend mode="normal" in2="BackgroundImageFix" result="effect1_dropShadow"/>
<feBlend mode="normal" in="SourceGraphic" in2="effect1_dropShadow" result="shape"/>
</filter>
</defs>
</svg>
